<svg xmlns="http://www.w3.org/2000/svg" xmlns:xlink="http://www.w3.org/1999/xlink" viewBox="508 -1702 1280 150"><defs><style>.a{fill:#0c85aa;}.b{clip-path:url(#a);}.c{fill:#53d482;opacity:0.29;}.c,.e,.f{fill-rule:evenodd;}.d{fill:#0c6a77;opacity:0.31;}.e{fill:#28a2bd;opacity:0.39;}.f{fill:#75d9ea;opacity:0.21;}</style><clipPath id="a"><rect class="a" width="1280" height="150" transform="translate(-1610 -1318)"/></clipPath></defs><g class="b" transform="translate(2118 -384)"><rect class="a" width="1280" height="150" transform="translate(-1610 -1318)"/><path class="c" d="M216.994,238.346l-142.6,32.034c-18.033,4.051-36.042-9.362-40.248-29.977L.885,77.388C-3.322,56.773,7.876,36.8,25.908,32.748L168.458.725c18.085-4.063,36.094,9.351,40.3,29.965l33.248,162.957C246.224,214.321,235.027,234.3,216.994,238.346Z" transform="matrix(0.999, 0.052, -0.052, 0.999, -608.837, -1538.756)"/><path class="c" d="M142.549,151.783l-93.917,21.4c-11.877,2.706-23.708-5.729-26.442-18.853L.568,50.552C-2.166,37.428,5.237,24.609,17.114,21.9L111,.508c11.911-2.714,23.742,5.722,26.477,18.846L159.087,123.1C161.829,136.257,154.425,149.077,142.549,151.783Z" transform="translate(-524.13 -1438.632) rotate(91)"/><path class="d" d="M18.382,108.289,491.687.554c12.654-2.88,25.191,5.743,28,19.261l92.152,442.843c2.813,13.518-5.164,26.811-17.818,29.691l-473.3,107.735c-12.654,2.88-25.191-5.743-28-19.261L.564,137.98C-2.249,124.462,5.729,111.17,18.382,108.289Z" transform="matrix(1, 0.017, -0.017, 1, -1446.639, -1827.486)"/><path class="e" d="M432.067,427.819,113.487,497.16c-14.472,3.15-29.207-7.851-32.834-24.514L.814,105.844C-2.812,89.18,6.017,73.051,20.489,69.9L339.162.538C353.635-2.612,368.37,8.389,372,25.053l79.862,366.909C455.369,408.539,446.539,424.668,432.067,427.819Z" transform="translate(-1519.745 -1687.699)"/><path class="f" d="M305.674,302.669,80.288,351.726c-10.239,2.228-20.663-5.554-23.229-17.343L.576,74.881C-1.99,63.093,4.257,51.681,14.5,49.452L239.947.381c10.239-2.229,20.663,5.554,23.229,17.343l56.5,259.577C322.16,289.029,315.913,300.44,305.674,302.669Z" transform="translate(-1664 -1546.948)"/></g></svg>