<svg xmlns="http://www.w3.org/2000/svg" viewBox="594.058 -1909.809 160.942 82.507"><defs><style>.a{fill:#055a7f;}.b{fill:#fff;}</style></defs><g transform="translate(591 -1953.698)"><path class="a" d="M3.058,43.889,17.379,114.8a14.542,14.542,0,0,0,17.11,11.3L152.406,101.99a14.542,14.542,0,0,0,11.3-17.11l-9.222-40.991Z"/><g transform="translate(39.224 66.178)"><path class="b" d="M66.607,102.4a.116.116,0,0,0-.119.118v3.91c0,.118,0,.237.119.237h4.5a.413.413,0,0,0,.118-.237v-3.91l-.118-.118Z" transform="translate(-57.127 -93.751)"/><path class="b" d="M66.607,114.727a.116.116,0,0,0-.119.118v3.912c0,.118,0,.236.119.236h4.5a.413.413,0,0,0,.118-.236v-3.912l-.118-.118Z" transform="translate(-57.127 -97.07)"/><path class="b" d="M54.078,95.155h4.384a.255.255,0,0,0,.237-.237V91.009c0-.12-.118-.12-.237-.12H54.078c-.119,0-.236,0-.236.12v3.909A.253.253,0,0,0,54.078,95.155Z" transform="translate(-53.722 -90.651)"/><path class="b" d="M58.655,102.521a.413.413,0,0,0-.237-.118H54.034a.407.407,0,0,0-.236.118v12.086a4.842,4.842,0,0,1-.12,1.067h5.215a2.039,2.039,0,0,1-.237-1.067Z" transform="translate(-53.678 -93.751)"/><path class="b" d="M145.42,90.8H129.067c-4.384,0-7.466,3.555-7.466,7.939v1.542l4.029,6.042c.118.237.238.118.238,0V98.74a4.768,4.768,0,0,1,4.74-5.095h13.034a5.158,5.158,0,0,1,5.214,5.095v5.806a5.158,5.158,0,0,1-5.214,5.1H128a5.233,5.233,0,0,1-4.028-1.9L112.952,91.631a3.483,3.483,0,0,0-2.726-1.068,3.605,3.605,0,0,0-2.843,1.068L102.523,98.5c-.118.118,0,.237.12.237h3.318a.115.115,0,0,0,.118-.118l3.437-4.74,4.266,6.281h-29.5V98.738a5.058,5.058,0,0,1,5.1-5.095h11.019l.118-.119,1.541-2.488c.119-.118,0-.237-.118-.237H87.476a7.966,7.966,0,0,0-8.058,7.939v12.679a4.9,4.9,0,0,1-.118,1.067h5.095a3.75,3.75,0,0,1-.118-1.067v-9h31.046l4.976,7.228a7.768,7.768,0,0,0,6.043,2.844h19.078a7.939,7.939,0,0,0,7.939-7.939V98.739A7.94,7.94,0,0,0,145.42,90.8Z" transform="translate(-60.577 -90.563)"/><path class="b" d="M106.866,109.213H103.43s-4.5,6.635-4.859,7.228c-.474.593-.948,1.067-.948,1.067h4.03s.354-.71.592-1.067c.355-.474,4.74-6.989,4.74-6.989C107.1,109.332,106.985,109.213,106.866,109.213Z" transform="translate(-65.511 -95.585)"/></g></g></svg>